<?xml version="1.0" standalone="no"?>
<!DOCTYPE svg PUBLIC "-//W3C//DTD SVG 20010904//EN"
 "http://www.w3.org/TR/2001/REC-SVG-20010904/DTD/svg10.dtd">
<svg version="1.0" xmlns="http://www.w3.org/2000/svg"
 width="1254.000000pt" height="1254.000000pt" viewBox="0 0 1254.000000 1254.000000"
 preserveAspectRatio="xMidYMid meet">

<g transform="translate(0.000000,1254.000000) scale(0.100000,-0.100000)"
fill="#000000" stroke="none">
<path d="M0 6270 l0 -6270 6270 0 6270 0 0 6270 0 6270 -6270 0 -6270 0 0
-6270z m2591 4551 c220 -57 412 -215 516 -426 30 -60 43 -94 63 -172 l11 -43
625 0 c674 0 705 -2 837 -55 129 -52 161 -79 590 -505 230 -228 439 -442 464
-475 25 -33 61 -91 79 -130 62 -134 66 -162 71 -477 l5 -288 263 0 263 0 4
133 c6 158 30 234 107 337 27 36 175 189 328 341 395 392 361 379 949 379
l381 0 18 68 c59 216 218 411 420 512 122 61 217 82 360 82 143 0 238 -21 360
-82 226 -113 380 -320 431 -578 55 -281 -61 -590 -289 -771 l-62 -50 -441 -1
-441 0 -69 58 c-38 32 -90 85 -117 117 -59 73 -127 207 -152 298 l-18 67 -387
0 c-332 0 -393 -2 -436 -16 -43 -15 -84 -52 -329 -293 -154 -153 -299 -290
-323 -306 -64 -42 -118 -117 -144 -199 -6 -17 -13 -107 -17 -201 l-6 -170
-295 -3 c-162 -1 -305 0 -317 3 -15 3 -70 75 -170 223 l-148 217 -5 201 -5
201 -42 84 c-41 82 -53 95 -465 505 -448 445 -461 456 -581 484 -25 6 -299 10
-669 10 l-627 0 -11 -42 c-75 -296 -297 -523 -585 -599 -111 -29 -280 -29
-390 0 -207 55 -371 172 -484 346 -158 242 -174 549 -41 805 176 336 556 506
921 411z m107 -2542 c111 -12 363 -64 532 -110 63 -18 146 -40 184 -50 38 -11
71 -21 74 -23 2 -3 -3 -197 -12 -433 -9 -235 -16 -443 -16 -460 l0 -33 -175 0
-174 0 -6 33 c-3 17 -28 168 -54 334 -27 166 -52 307 -56 313 -21 35 -214 102
-363 126 -136 22 -414 14 -527 -15 -241 -63 -388 -200 -441 -411 -23 -92 -16
-292 14 -375 47 -128 169 -267 329 -375 43 -28 276 -150 518 -270 242 -121
496 -251 565 -290 338 -193 535 -412 616 -687 35 -119 44 -318 20 -446 -43
-225 -148 -428 -301 -581 -202 -202 -459 -330 -787 -393 -112 -21 -483 -29
-630 -14 -193 20 -478 87 -767 180 -69 22 -144 43 -167 47 -24 3 -44 11 -47
18 -2 8 39 979 42 994 1 1 82 2 180 2 l179 0 6 -27 c3 -16 24 -174 47 -353 47
-367 40 -347 144 -405 80 -45 278 -110 390 -129 206 -34 432 -29 604 15 234
59 408 214 474 424 27 83 39 216 28 303 -21 158 -66 251 -184 370 -129 131
-269 213 -677 397 -358 162 -585 285 -738 400 -149 112 -323 333 -381 484 -57
147 -65 199 -65 391 0 201 15 273 84 419 126 263 362 456 693 565 71 23 243
60 327 69 79 9 427 6 518 -4z m2737 -314 c1606 -2350 1622 -2374 1765 -2645
73 -140 139 -264 147 -275 11 -16 13 221 13 1416 l0 1435 -232 32 c-127 17
-236 36 -240 40 -5 5 -7 69 -6 143 l3 134 653 3 652 2 0 -144 0 -143 -27 -6
c-16 -2 -115 -17 -220 -33 l-193 -28 0 -1863 0 -1863 -222 0 -223 0 -931 1368
c-856 1257 -947 1395 -1130 1708 l-199 341 -3 -1540 c-1 -847 -1 -1541 0
-1542 2 -1 115 -14 252 -28 137 -15 253 -30 258 -35 5 -5 7 -67 6 -138 l-3
-129 -672 -3 -673 -2 0 134 c0 82 4 137 10 141 8 5 377 61 428 65 1 0 2 762 2
1693 l0 1693 -210 32 c-116 17 -215 34 -220 37 -11 7 -14 268 -3 278 3 4 236
6 516 5 l510 -3 192 -280z m6489 243 c3 -24 17 -317 31 -653 14 -335 28 -649
31 -697 l7 -88 -182 0 c-99 0 -181 1 -181 3 0 19 -179 1130 -183 1133 -5 5
-713 33 -849 34 l-78 0 0 -1718 0 -1718 333 -23 c182 -12 356 -25 385 -28 l52
-6 0 -138 0 -139 -1050 0 -1050 0 0 139 0 138 53 6 c28 3 188 16 355 28 l302
23 0 1718 0 1718 -77 0 c-130 -1 -845 -29 -850 -33 -3 -4 -191 -1108 -193
-1134 0 -2 -83 -3 -185 -3 l-185 0 0 48 c0 56 78 1303 86 1380 l5 52 1709 0
1709 0 5 -42z m-7645 -1895 c-1 -1192 -2 -1266 -17 -1233 -15 32 -17 119 -20
938 l-3 903 -237 -3 c-130 -2 -245 -7 -254 -12 -27 -12 -22 8 11 55 34 46 50
89 65 174 l11 60 203 3 202 2 0 184 c0 100 3 186 7 189 33 34 33 33 32 -1260z
m2001 1102 c0 -8 -4 -15 -10 -15 -5 0 -10 7 -10 15 0 8 5 15 10 15 6 0 10 -7
10 -15z m-2721 -612 c-1 -12 -255 -238 -271 -241 -11 -2 -227 108 -248 126 -3
2 21 28 54 58 l59 54 186 3 c102 1 194 3 204 5 9 1 17 -1 16 -5z m3431 -319
c0 -78 -4 -123 -10 -119 -14 9 -160 222 -160 234 0 7 30 11 85 11 l85 0 0
-126z m1309 -64 c55 -17 92 -20 275 -20 l212 0 45 -47 c26 -27 141 -163 257
-304 116 -141 226 -269 243 -283 42 -35 96 -62 153 -77 l47 -12 -3 -136 -3
-136 -40 3 c-96 8 -252 79 -341 156 -23 19 -146 163 -275 318 -128 156 -251
300 -274 321 -22 21 -69 52 -105 70 -61 30 -72 32 -195 35 -190 4 -175 -5
-175 106 0 51 3 95 6 99 3 3 29 -12 57 -34 29 -22 81 -48 116 -59z m2686 -157
c76 -38 164 -104 226 -170 146 -153 219 -337 219 -553 0 -231 -83 -425 -251
-586 -94 -90 -137 -114 -203 -114 -88 0 -86 -3 -86 124 l0 111 58 43 c150 109
233 311 204 500 -22 141 -120 296 -229 363 l-33 21 0 149 0 150 23 -7 c12 -3
45 -18 72 -31z m-5515 -653 c0 -177 -2 -201 -16 -207 -9 -3 -24 -2 -33 4 -14
9 -16 38 -19 194 -1 101 0 189 2 196 3 7 19 13 36 13 l30 0 0 -200z m2805
-151 c65 -14 180 -69 228 -110 21 -17 149 -151 285 -297 l245 -266 -24 -15
c-47 -31 -111 -95 -136 -138 -14 -24 -26 -43 -28 -43 -2 0 -86 89 -186 198
-349 377 -355 382 -473 406 l-61 13 -3 123 c-1 68 0 130 3 138 6 15 49 12 150
-9z m-5745 -46 c36 -21 93 -65 127 -98 l63 -61 0 -157 0 -156 -32 -36 c-17
-20 -48 -45 -69 -56 -43 -22 -158 -51 -171 -43 -4 3 -8 149 -8 325 0 251 3
319 13 319 7 0 42 -17 77 -37z m3958 -697 c51 -74 92 -137 92 -140 0 -3 -121
-6 -270 -6 l-270 0 0 -708 0 -708 72 -18 c268 -69 495 -298 570 -574 33 -119
30 -307 -6 -427 -68 -225 -215 -400 -421 -500 -125 -61 -203 -79 -355 -79
-101 0 -141 4 -205 23 -295 83 -528 334 -585 629 -18 89 -8 299 18 377 30 91
50 133 99 210 107 165 296 301 481 345 l52 12 0 351 0 350 49 52 c27 28 62 76
77 106 l29 54 0 240 c0 239 0 240 -27 297 -60 129 -173 199 -350 219 -59 6
-105 16 -102 20 3 5 220 9 483 9 l477 0 92 -134z m-3226 -828 c57 -117 73
-192 73 -343 0 -115 -4 -154 -23 -218 -82 -285 -296 -494 -582 -569 -106 -27
-277 -27 -385 1 -365 96 -616 415 -615 783 0 81 22 215 37 229 7 6 260 -20
271 -27 2 -2 -1 -19 -8 -38 -42 -127 -31 -270 31 -394 71 -146 190 -243 345
-282 129 -33 239 -23 360 35 254 122 367 420 257 680 -39 94 -41 91 67 133 52
21 104 43 115 50 29 17 29 17 57 -40z m5935 -88 l63 0 -6 -58 c-15 -138 48
-311 148 -410 111 -110 203 -152 348 -159 175 -10 288 33 405 151 114 115 155
216 155 383 l0 93 135 0 135 0 6 -26 c11 -44 -4 -214 -26 -292 -61 -218 -215
-405 -414 -502 -121 -60 -191 -79 -313 -87 -225 -14 -434 62 -600 220 -168
160 -253 355 -253 584 0 56 4 113 9 126 l9 24 69 -23 c42 -15 92 -24 130 -24z"/>
<path d="M2253 10555 c-324 -88 -490 -445 -344 -740 49 -97 102 -161 178 -211
357 -237 827 12 827 436 -1 154 -54 280 -165 384 -73 70 -160 117 -247 135
-71 15 -185 13 -249 -4z"/>
<path d="M8816 9814 c-233 -56 -400 -271 -400 -514 0 -472 574 -708 904 -371
105 107 150 218 150 372 0 146 -52 273 -154 374 -132 131 -319 183 -500 139z"/>
<path d="M5795 2878 c-89 -17 -194 -75 -265 -147 -136 -137 -186 -309 -144
-489 94 -406 596 -551 890 -258 205 205 207 543 3 747 -126 127 -305 181 -484
147z"/>
</g>
</svg>
